<svg width="20" height="21" viewBox="0 0 20 21" fill="none" xmlns="http://www.w3.org/2000/svg">
<path d="M6.5 8C6.22386 8 6 8.22386 6 8.5V9.5C6 9.77614 6.22386 10 6.5 10H13.5C13.7761 10 14 9.77614 14 9.5V8.5C14 8.22386 13.7761 8 13.5 8H6.5Z" fill="#86878B"/>
<path fill-rule="evenodd" clip-rule="evenodd" d="M2 0C0.895431 0 0 0.895431 0 2V15C0 16.1046 0.895431 17 2 17H6.54007L9.23785 20.1759C9.6372 20.6461 10.3628 20.6461 10.7621 20.1759L13.4599 17H18C19.1046 17 20 16.1046 20 15V2C20 0.89543 19.1046 0 18 0H2ZM2 15V2H18V15H13.0037C12.7096 15 12.4305 15.1294 12.2405 15.3538L10 18L7.75951 15.3538C7.56951 15.1294 7.29037 15 6.99633 15H2Z" fill="#86878B"/>
</svg>
