<svg width="23" height="23" viewBox="0 0 23 23" fill="none" xmlns="http://www.w3.org/2000/svg">
<path fill-rule="evenodd" clip-rule="evenodd" d="M20.9 11.5C20.9 16.6915 16.6915 20.9 11.5 20.9C6.30852 20.9 2.1 16.6915 2.1 11.5C2.1 6.30852 6.30852 2.1 11.5 2.1C16.6915 2.1 20.9 6.30852 20.9 11.5ZM23 11.5C23 17.8513 17.8513 23 11.5 23C5.14873 23 0 17.8513 0 11.5C0 5.14873 5.14873 0 11.5 0C17.8513 0 23 5.14873 23 11.5ZM14.1681 12.7666L15.4559 5.9458L9.18966 9.56631L7.25977 17L14.1681 12.7666ZM10.2597 12.9498L10.8167 10.8043L12.8401 9.63523L12.47 11.5954L10.2597 12.9498Z" fill="white" fill-opacity="0.9"/>
</svg>
