<svg width="25" height="27" viewBox="0 0 25 27" fill="none" xmlns="http://www.w3.org/2000/svg">
<g filter="url(#filter0_d_501_18056)">
<path fill-rule="evenodd" clip-rule="evenodd" d="M9.20711 1.29289C8.81658 0.902369 8.18342 0.902369 7.79289 1.29289C7.40237 1.68342 7.40237 2.31658 7.79289 2.70711L10.0858 5H4.5C2.567 5 1 6.567 1 8.5C1 9.05229 1.44772 9.5 2 9.5C2.55228 9.5 3 9.05229 3 8.5C3 7.67157 3.67157 7 4.5 7H12.5H20.5C21.3284 7 22 7.67157 22 8.5C22 9.05229 22.4477 9.5 23 9.5C23.5523 9.5 24 9.05229 24 8.5C24 6.567 22.433 5 20.5 5H14.9142L17.2071 2.70711C17.5976 2.31658 17.5976 1.68342 17.2071 1.29289C16.8166 0.902369 16.1834 0.902369 15.7929 1.29289L12.5 4.58579L9.20711 1.29289ZM3 21C3 20.4477 2.55228 20 2 20C1.44772 20 1 20.4477 1 21C1 23.2091 2.79086 25 5 25H20C22.2091 25 24 23.2091 24 21C24 20.4477 23.5523 20 23 20C22.4477 20 22 20.4477 22 21C22 22.1046 21.1046 23 20 23H5C3.89543 23 3 22.1046 3 21ZM12.4231 11.6154C12.2107 11.1056 11.6252 10.8645 11.1154 11.0769C10.6056 11.2893 10.3645 11.8748 10.5769 12.3846L13.0769 18.3846C13.2322 18.7573 13.5963 19 14 19C14.4037 19 14.7678 18.7573 14.9231 18.3846L17.4231 12.3846C17.6355 11.8748 17.3944 11.2893 16.8846 11.0769C16.3748 10.8645 15.7893 11.1056 15.5769 11.6154L14 15.4L12.4231 11.6154ZM3 12C3 11.4477 2.55228 11 2 11C1.44772 11 1 11.4477 1 12V18C1 18.5523 1.44772 19 2 19H5C5.55228 19 6 18.5523 6 18C6 17.4477 5.55228 17 5 17H3V12ZM9 12C9 11.4477 8.55228 11 8 11C7.44772 11 7 11.4477 7 12V18C7 18.5523 7.44772 19 8 19C8.55228 19 9 18.5523 9 18V12ZM20 11C19.4477 11 19 11.4477 19 12V15V18C19 18.5523 19.4477 19 20 19H23C23.5523 19 24 18.5523 24 18C24 17.4477 23.5523 17 23 17H21V16H23C23.5523 16 24 15.5523 24 15C24 14.4477 23.5523 14 23 14H21V13H23C23.5523 13 24 12.5523 24 12C24 11.4477 23.5523 11 23 11H20Z" fill="white" fill-opacity="0.9" shape-rendering="crispEdges"/>
</g>
<defs>
<filter id="filter0_d_501_18056" x="0" y="0.5" width="25" height="26" filterUnits="userSpaceOnUse" color-interpolation-filters="sRGB">
<feFlood flood-opacity="0" result="BackgroundImageFix"/>
<feColorMatrix in="SourceAlpha" type="matrix" values="0 0 0 0 0 0 0 0 0 0 0 0 0 0 0 0 0 0 127 0" result="hardAlpha"/>
<feOffset dy="0.5"/>
<feGaussianBlur stdDeviation="0.5"/>
<feComposite in2="hardAlpha" operator="out"/>
<feColorMatrix type="matrix" values="0 0 0 0 0 0 0 0 0 0 0 0 0 0 0 0 0 0 0.25 0"/>
<feBlend mode="normal" in2="BackgroundImageFix" result="effect1_dropShadow_501_18056"/>
<feBlend mode="normal" in="SourceGraphic" in2="effect1_dropShadow_501_18056" result="shape"/>
</filter>
</defs>
</svg>
