<svg width="19" height="21" viewBox="0 0 19 21" fill="none" xmlns="http://www.w3.org/2000/svg">
<path fill-rule="evenodd" clip-rule="evenodd" d="M15.3582 5.75C15.3582 8.92564 12.7838 11.5 9.60815 11.5C6.43252 11.5 3.85815 8.92564 3.85815 5.75C3.85815 2.57436 6.43252 0 9.60815 0C12.7838 0 15.3582 2.57436 15.3582 5.75ZM13.3582 5.75C13.3582 7.82107 11.6792 9.5 9.60815 9.5C7.53709 9.5 5.85815 7.82107 5.85815 5.75C5.85815 3.67893 7.53709 2 9.60815 2C11.6792 2 13.3582 3.67893 13.3582 5.75Z" fill="#8A8B8F"/>
<path d="M0.520516 19.7228C0.445589 19.9683 0.582491 20.225 0.823674 20.3128L1.75686 20.6525C2.04011 20.7555 2.34835 20.5856 2.43676 20.2975C3.37768 17.2301 6.23247 15 9.60814 15C12.9838 15 15.8386 17.2301 16.7796 20.2975C16.868 20.5856 17.1762 20.7555 17.4595 20.6525L18.3926 20.3128C18.6338 20.225 18.7707 19.9683 18.6958 19.7228C17.5079 15.831 13.8886 13 9.60814 13C5.32765 13 1.70838 15.831 0.520516 19.7228Z" fill="#8A8B8F"/>
</svg>
