<svg width="13" height="14" viewBox="0 0 13 14" fill="none" xmlns="http://www.w3.org/2000/svg">
<path fill-rule="evenodd" clip-rule="evenodd" d="M11.5174 1.85006C11.5174 1.61269 11.2966 1.43678 11.0648 1.48941L5.14212 2.83406C4.97349 2.87234 4.8538 3.02206 4.8538 3.19471V11.9244H4.85343C4.86325 12.7259 4.03523 13.5598 2.85345 13.8759C1.53428 14.2288 0.273864 13.8031 0.0382219 12.9251C-0.197424 12.047 0.680936 11.0492 2.00009 10.6962C2.48078 10.5676 2.95369 10.5425 3.37203 10.6048V3.19471C3.37203 2.33139 3.97037 1.58291 4.81357 1.39147L10.7362 0.046815C11.8954 -0.216345 12.9992 0.663251 12.9992 1.85006V10.1202C13.0302 10.9308 12.1964 11.7815 10.9999 12.1016C9.68074 12.4545 8.42034 12.0288 8.18471 11.1508C7.94907 10.2727 8.82742 9.27481 10.1466 8.92189C10.6268 8.79344 11.0993 8.76814 11.5174 8.83032V1.85006Z" fill="white" fill-opacity="0.9"/>
</svg>
