<svg width="21" height="21" viewBox="0 0 21 21" fill="none" xmlns="http://www.w3.org/2000/svg">
<path fill-rule="evenodd" clip-rule="evenodd" d="M14.384 16.2124C12.8826 17.335 11.019 18 9 18C4.02954 18 0 13.9705 0 9C0 4.02954 4.02954 0 9 0C13.9705 0 18 4.02954 18 9C18 11.2307 17.1885 13.272 15.8445 14.8445L20.2915 19.2915C20.4868 19.4868 20.4868 19.8035 20.2915 19.9985L19.5845 20.7058C19.3892 20.9011 19.0725 20.9011 18.8774 20.7058L14.384 16.2124ZM16 9C16 12.866 12.866 16 9 16C5.13403 16 2 12.866 2 9C2 5.13403 5.13403 2 9 2C12.866 2 16 5.13403 16 9Z" fill="#8A8B8F"/>
</svg>
